<svg version="1.1" viewBox="0.0 0.0 829.3333333333334 196.0" fill="none" stroke="none" stroke-linecap="square" stroke-miterlimit="10" xmlns:xlink="http://www.w3.org/1999/xlink" xmlns="http://www.w3.org/2000/svg"><clipPath id="p.0"><path d="m0 0l829.3333 0l0 196.0l-829.3333 0l0 -196.0z" clip-rule="nonzero"/></clipPath><g clip-path="url(#p.0)"><path fill="#000000" fill-opacity="0.0" d="m0 0l829.3333 0l0 196.0l-829.3333 0z" fill-rule="evenodd"/><path fill="#000000" fill-opacity="0.0" d="m23.942257 11.165355l781.4488 0l0 173.66928l-781.4488 0z" fill-rule="evenodd"/><path fill="#000000" d="m112.56726 66.35786l2.5625 -14.312496l-71.3125 0l-2.5 14.312496l26.875004 0l-13.312504 76.68751l17.187504 0l13.3125 -76.68751l27.1875 0zm39.25 76.68751l16.8125 0l0.0625 -1.125q-1.3125 -3.625 -1.03125 -7.46875q0.28125 -3.84375 0.84375 -7.5312576l4.6875 -29.0625q0.5625 -5.8125 -1.21875 -10.1875q-1.78125 -4.375 -5.21875 -7.375q-3.5 -2.9375 -8.25 -4.5q-4.75 -1.5625 -10.0625 -1.6875q-5.0625 -0.0625 -10.21875 1.15625q-5.15625 1.21875 -9.40625 3.84375q-4.25 2.6875 -7.0625 6.78125q-2.8125 4.09375 -3.1875 9.71875l16.9375 -0.125q0.4375 -2.0625 1.34375 -3.65625q0.90625 -1.59375 2.28125 -2.59375q1.4375 -1.125 3.34375 -1.65625q1.90625 -0.53125 4.15625 -0.46875q2.4375 0.0625 4.375 0.78125q1.9375 0.71875 3.25 2.03125q1.25 1.375 1.78125 3.3125q0.53125 1.9375 0.15625 4.375l-0.8125 4.1875l-9.75 -0.125q-3.8125 0 -7.71875 0.4375q-3.90625 0.4375 -7.59375 1.5q-3.6875 1.0625 -6.9375 2.78125q-3.25 1.71875 -5.75 4.28125q-2.5 2.5625 -4.03125 6.0q-1.53125 3.4375 -1.71875 7.9375q-0.1875 4.5000076 1.375 8.125008q1.5625 3.625 4.4375 6.125q2.8125 2.5625 6.65625 3.96875q3.84375 1.40625 8.09375 1.46875q3.625 0.0625 6.875 -0.78125q3.25 -0.84375 6.125 -2.46875q1.5 -0.875 2.9375 -1.96875q1.4375 -1.09375 2.8125 -2.34375q-0.0625 1.625 0.03125 3.15625q0.09375 1.53125 0.59375 3.15625zm-14.9375 -12.125q-1.8125 0 -3.34375 -0.5q-1.53125 -0.5 -2.59375 -1.4375q-1.0625 -0.9375 -1.5625 -2.3750076q-0.5 -1.4375 -0.25 -3.375q0.25 -1.6875 0.8125 -3.0625q0.5625 -1.375 1.375 -2.4375q1.0 -1.3125 2.375 -2.21875q1.375 -0.90625 2.8125 -1.65625q2.25 -0.9375 4.8125 -1.375q2.5625 -0.4375 5.0625 -0.4375l7.6875 0.0625l-2.125 11.6875q-1.1875 1.4375 -2.59375 2.625q-1.40625 1.1875 -2.90625 2.0625076q-2.125 1.25 -4.5625 1.875q-2.4375 0.625 -5.0 0.5625zm94.25 -6.8125076q-0.4375 2.375 -1.96875 3.875q-1.53125 1.5000076 -3.59375 2.3125076q-2.125 0.875 -4.46875 1.1875q-2.34375 0.3125 -4.28125 0.3125q-2.5625 0 -4.84375 -0.5625q-2.28125 -0.5625 -4.03125 -1.8125q-1.8125 -1.1875 -2.875 -3.1250076q-1.0625 -1.9375 -1.1875 -4.6875l-16.0625 -0.0625q0 5.75 2.46875 9.968758q2.46875 4.21875 6.46875 7.03125q3.9375 2.875 8.9375 4.3125q5.0 1.4375 10.1875 1.5q4.5 0.0625 9.625 -0.875q5.125 -0.9375 9.5625 -2.9375q5.0625 -2.4375 8.625 -6.65625q3.5625 -4.21875 3.875 -10.593758q0.25 -5.25 -2.09375 -8.8125q-2.34375 -3.5625 -6.03125 -5.875q-1.5 -0.9375 -3.1875 -1.6875q-1.6875 -0.75 -3.4375 -1.375q-2.5625 -0.9375 -5.25 -1.59375q-2.6875 -0.65625 -5.1875 -1.15625q-1.625 -0.3125 -3.8125 -0.75q-2.1875 -0.4375 -4.0625 -1.3125q-1.875 -0.8125 -3.0625 -2.25q-1.1875 -1.4375 -0.75 -3.8125q0.375 -2.25 1.78125 -3.78125q1.40625 -1.53125 3.34375 -2.46875q1.9375 -0.875 4.125 -1.25q2.1875 -0.375 4.125 -0.375q2.3125 0 4.34375 0.53125q2.03125 0.53125 3.53125 1.59375q1.5 1.125 2.34375 2.875q0.84375 1.75 0.78125 4.1875l16.875 0.0625q0 -5.6875 -2.34375 -9.78125q-2.34375 -4.09375 -6.15625 -6.78125q-3.875 -2.6875 -8.75 -3.96875q-4.875 -1.28125 -10.0 -1.34375q-4.3125 -0.0625 -8.96875 0.90625q-4.65625 0.96875 -8.46875 2.78125q-5.375 2.5 -9.03125 6.9375q-3.65625 4.4375 -3.84375 10.75q-0.1875 4.8125 2.0 8.25q2.1875 3.4375 5.6875 5.75q2.9375 2.0 6.0 3.28125q3.0625 1.28125 6.9375 2.28125q2.0 0.5 4.28125 1.03125q2.28125 0.53125 4.90625 1.09375q1.3125 0.3125 2.625 0.875q1.3125 0.5625 2.25 1.25q1.125 0.875 1.75 2.03125q0.625 1.15625 0.3125 2.71875zm74.8125 -65.25l-16.9375 0l-2.875 16.562496l-15.0 0l-2.25 12.8125l15.0 0l-5.0625 30.75q-0.5625 5.375 0.40625 9.968758q0.96875 4.59375 3.53125 7.96875q2.5 3.375 6.59375 5.34375q4.09375 1.96875 9.78125 2.03125q4.9375 0.125 10.4375 -0.6875q5.5 -0.8125 10.0625 -3.3125l-0.5625 -12.0625q-3.5625 0.75 -7.125 1.3125q-3.5625 0.5625 -7.1875 0.4375q-2.9375 -0.0625 -4.78125 -1.0625q-1.84375 -1.0000076 -2.78125 -2.6875076q-1.0 -1.6875 -1.21875 -3.9375q-0.21875 -2.25 0.09375 -4.9375l4.75 -29.125l24.5 0l2.25 -12.8125l-24.5 0l2.875 -16.562496zm45.75 16.562496l-2.5 14.1875l18.6875 0l-6.8125 39.312508l-18.6875 0l-2.4375 14.125l53.5625 0l2.5 -14.125l-17.8125 0l9.3125 -53.500008l-35.8125 0zm20.4375 -16.999996q0 4.125 2.84375 6.624996q2.84375 2.5 6.84375 2.375q4.0625 0 6.9375 -2.65625q2.875 -2.6562462 2.875 -6.968746q0 -4.125 -2.84375 -6.625q-2.84375 -2.5 -6.84375 -2.375q-4.25 0 -7.03125 2.75q-2.78125 2.75 -2.78125 6.875zm133.75 70.4375l13.375 -76.8125l-17.25 0l-15.75 91.0l58.5 0l2.5 -14.1875l-41.375 0zm96.6875 14.1875l16.8125 0l0.0625 -1.125q-1.3125 -3.625 -1.03125 -7.46875q0.28125 -3.84375 0.84375 -7.5312576l4.6875 -29.0625q0.5625 -5.8125 -1.21875 -10.1875q-1.78125 -4.375 -5.21875 -7.375q-3.5 -2.9375 -8.25 -4.5q-4.75 -1.5625 -10.0625 -1.6875q-5.0625 -0.0625 -10.21875 1.15625q-5.15625 1.21875 -9.40625 3.84375q-4.25 2.6875 -7.0625 6.78125q-2.8125 4.09375 -3.1875 9.71875l16.9375 -0.125q0.4375 -2.0625 1.34375 -3.65625q0.90625 -1.59375 2.28125 -2.59375q1.4375 -1.125 3.34375 -1.65625q1.90625 -0.53125 4.15625 -0.46875q2.4375 0.0625 4.375 0.78125q1.9375 0.71875 3.25 2.03125q1.25 1.375 1.78125 3.3125q0.53125 1.9375 0.15625 4.375l-0.8125 4.1875l-9.75 -0.125q-3.8125 0 -7.71875 0.4375q-3.90625 0.4375 -7.59375 1.5q-3.6875 1.0625 -6.9375 2.78125q-3.25 1.71875 -5.75 4.28125q-2.5 2.5625 -4.03125 6.0q-1.53125 3.4375 -1.71875 7.9375q-0.1875 4.5000076 1.375 8.125008q1.5625 3.625 4.4375 6.125q2.8125 2.5625 6.65625 3.96875q3.84375 1.40625 8.09375 1.46875q3.625 0.0625 6.875 -0.78125q3.25 -0.84375 6.125 -2.46875q1.5 -0.875 2.9375 -1.96875q1.4375 -1.09375 2.8125 -2.34375q-0.0625 1.625 0.03125 3.15625q0.09375 1.53125 0.59375 3.15625zm-14.9375 -12.125q-1.8125 0 -3.34375 -0.5q-1.53125 -0.5 -2.59375 -1.4375q-1.0625 -0.9375 -1.5625 -2.3750076q-0.5 -1.4375 -0.25 -3.375q0.25 -1.6875 0.8125 -3.0625q0.5625 -1.375 1.375 -2.4375q1.0 -1.3125 2.375 -2.21875q1.375 -0.90625 2.8125 -1.65625q2.25 -0.9375 4.8125 -1.375q2.5625 -0.4375 5.0625 -0.4375l7.6875 0.0625l-2.125 11.6875q-1.1875 1.4375 -2.59375 2.625q-1.40625 1.1875 -2.90625 2.0625076q-2.125 1.25 -4.5625 1.875q-2.4375 0.625 -5.0 0.5625zm113.25 -21.375008l0.1875 -1.3125q0.375 -3.8125 0.28125 -7.78125q-0.09375 -3.96875 -0.84375 -7.71875q-0.75 -3.75 -2.28125 -7.09375q-1.53125 -3.34375 -3.96875 -5.84375q-2.5 -2.5 -5.96875 -4.0q-3.46875 -1.5 -8.09375 -1.625q-3.1875 -0.0625 -6.0 0.6875q-2.8125 0.75 -5.3125 2.1875q-1.4375 0.875 -2.84375 2.03125q-1.40625 1.15625 -2.71875 2.53125l6.625 -34.562496l-17.0 0l-16.625 96.0l15.375 0l2.5 -7.25q0.9375 1.375 2.03125 2.53125q1.09375 1.15625 2.34375 2.09375q2.5 1.875 5.53125 2.84375q3.03125 0.96875 6.40625 1.03125q4.875 0.125 8.90625 -1.21875q4.03125 -1.34375 7.21875 -3.78125q3.1875 -2.4375 5.625 -5.8125q2.4375 -3.375 4.1875 -7.3125076q1.75 -3.875 2.84375 -8.15625q1.09375 -4.28125 1.59375 -8.46875zm-16.8125 -1.3125l-0.125 1.3125q-0.25 2.25 -0.75 4.625q-0.5 2.375 -1.25 4.5625q-0.875 2.6875 -2.375 5.09375q-1.5 2.40625 -3.6875 3.96875q-1.5625 1.1875076 -3.34375 1.8437576q-1.78125 0.65625 -4.96875 0.65625q-1.625 0 -3.625 -0.5q-2.0 -0.5 -3.4375 -1.5625q-1.25 -0.9375076 -2.1875 -2.2812576q-0.9375 -1.34375 -1.5 -3.09375l4.6875 -27.125q1.125 -1.6875 2.46875 -3.0625q1.34375 -1.375 2.90625 -2.3125q1.6875 -1.0625 3.65625 -1.59375q1.96875 -0.53125 4.28125 -0.46875q2.625 0.0625 4.375 1.03125q1.75 0.96875 2.875 2.53125q1.0625 1.5625 1.59375 3.59375q0.53125 2.03125 0.71875 4.21875q0.125 2.1875 0 4.40625q-0.125 2.21875 -0.3125 4.15625zm72.9375 15.875q-0.4375 2.375 -1.96875 3.875q-1.53125 1.5000076 -3.59375 2.3125076q-2.125 0.875 -4.46875 1.1875q-2.34375 0.3125 -4.28125 0.3125q-2.5625 0 -4.84375 -0.5625q-2.28125 -0.5625 -4.03125 -1.8125q-1.8125 -1.1875 -2.875 -3.1250076q-1.0625 -1.9375 -1.1875 -4.6875l-16.0625 -0.0625q0 5.75 2.46875 9.968758q2.46875 4.21875 6.46875 7.03125q3.9375 2.875 8.9375 4.3125q5.0 1.4375 10.1875 1.5q4.5 0.0625 9.625 -0.875q5.125 -0.9375 9.5625 -2.9375q5.0625 -2.4375 8.625 -6.65625q3.5625 -4.21875 3.875 -10.593758q0.25 -5.25 -2.09375 -8.8125q-2.34375 -3.5625 -6.03125 -5.875q-1.5 -0.9375 -3.1875 -1.6875q-1.6875 -0.75 -3.4375 -1.375q-2.5625 -0.9375 -5.25 -1.59375q-2.6875 -0.65625 -5.1875 -1.15625q-1.625 -0.3125 -3.8125 -0.75q-2.1875 -0.4375 -4.0625 -1.3125q-1.875 -0.8125 -3.0625 -2.25q-1.1875 -1.4375 -0.75 -3.8125q0.375 -2.25 1.78125 -3.78125q1.40625 -1.53125 3.34375 -2.46875q1.9375 -0.875 4.125 -1.25q2.1875 -0.375 4.125 -0.375q2.3125 0 4.34375 0.53125q2.03125 0.53125 3.53125 1.59375q1.5 1.125 2.34375 2.875q0.84375 1.75 0.78125 4.1875l16.875 0.0625q0 -5.6875 -2.34375 -9.78125q-2.34375 -4.09375 -6.15625 -6.78125q-3.875 -2.6875 -8.75 -3.96875q-4.875 -1.28125 -10.0 -1.34375q-4.3125 -0.0625 -8.96875 0.90625q-4.65625 0.96875 -8.46875 2.78125q-5.375 2.5 -9.03125 6.9375q-3.65625 4.4375 -3.84375 10.75q-0.1875 4.8125 2.0 8.25q2.1875 3.4375 5.6875 5.75q2.9375 2.0 6.0 3.28125q3.0625 1.28125 6.9375 2.28125q2.0 0.5 4.28125 1.03125q2.28125 0.53125 4.90625 1.09375q1.3125 0.3125 2.625 0.875q1.3125 0.5625 2.25 1.25q1.125 0.875 1.75 2.03125q0.625 1.15625 0.3125 2.71875z" fill-rule="nonzero"/></g></svg>